<svg width="16" height="16" viewBox="0 0 16 16" fill="none" xmlns="http://www.w3.org/2000/svg">
<path d="M11.12 13.8867C11.1133 13.8867 11.1 13.8867 11.0933 13.8867H3.7C1.74 13.7467 0.860001 12.24 0.860001 10.8933C0.860001 9.69333 1.56 8.36 3.08667 7.99333C2.66 6.32666 3.02 4.76 4.10667 3.62666C5.34 2.33333 7.32 1.82 9.02 2.34666C10.58 2.82666 11.68 4.11333 12.08 5.9C13.4467 6.20666 14.5333 7.24 14.9733 8.66666C15.4467 10.22 15.02 11.8133 13.8533 12.8333C13.1067 13.5067 12.1333 13.8867 11.12 13.8867ZM3.71333 8.9C3.70667 8.9 3.70667 8.9 3.7 8.9C2.43333 8.99333 1.85333 9.96666 1.85333 10.8933C1.85333 11.82 2.43333 12.7933 3.72667 12.8867H11.0867C11.86 12.8733 12.6 12.6067 13.1733 12.0867C14.2133 11.1733 14.2867 9.87333 14.0067 8.96C13.7267 8.04 12.9467 7 11.5867 6.82666C11.3667 6.8 11.1933 6.63333 11.1533 6.41333C10.8867 4.81333 10.02 3.70666 8.72 3.30666C7.36667 2.89333 5.80667 3.3 4.82667 4.32C3.94 5.24666 3.68667 6.52666 4.1 7.93333C4.44 7.98 4.76667 8.08 5.06667 8.23333C5.31333 8.36 5.41333 8.66 5.28667 8.90666C5.16 9.15333 4.86 9.25333 4.61333 9.12666C4.34 8.98666 4.04 8.91333 3.74 8.91333C3.73333 8.9 3.72667 8.9 3.71333 8.9Z" fill="#6A9CFF"/>
<path d="M10.5667 7.11333C10.38 7.11333 10.2067 7.01333 10.12 6.83333C9.99333 6.58666 10.1 6.28666 10.3467 6.16C10.76 5.95333 11.22 5.84 11.6733 5.83333C11.94 5.82666 12.18 6.04666 12.18 6.32666C12.1867 6.6 11.9667 6.83333 11.6867 6.83333C11.38 6.84 11.0667 6.91333 10.7867 7.05333C10.7133 7.09333 10.64 7.11333 10.5667 7.11333Z" fill="#6A9CFF"/>
</svg>
