<svg width="16" height="16" viewBox="0 0 16 16" fill="none" xmlns="http://www.w3.org/2000/svg">
<path d="M9.04665 14.92C8.89332 14.92 8.73999 14.8933 8.59332 14.84C8.09332 14.6533 7.77331 14.1867 7.77331 13.6533V9.35334H6.21332C5.70665 9.35334 5.26664 9.06667 5.05997 8.60667C4.85331 8.14667 4.93331 7.62667 5.26664 7.24667L10.3133 1.51334C10.6666 1.11334 11.2133 0.973335 11.7133 1.16667C12.2133 1.35334 12.5333 1.82 12.5333 2.35334V6.65334H14.0933C14.6 6.65334 15.04 6.94 15.2466 7.4C15.4533 7.86 15.3733 8.38 15.04 8.76L9.9933 14.4933C9.74664 14.7733 9.39998 14.92 9.04665 14.92ZM11.2533 2.08C11.1933 2.08 11.12 2.1 11.06 2.17334L6.0133 7.91334C5.90664 8.03334 5.94665 8.15334 5.96665 8.2C5.98665 8.24667 6.05331 8.36 6.21332 8.36H8.27331C8.54665 8.36 8.77331 8.58667 8.77331 8.86V13.66C8.77331 13.8267 8.89332 13.8933 8.94665 13.9133C8.99999 13.9333 9.1333 13.9667 9.23997 13.84L14.2866 8.1C14.3933 7.98 14.3533 7.86 14.3333 7.81334C14.3133 7.76667 14.2466 7.65334 14.0866 7.65334H12.0266C11.7533 7.65334 11.5266 7.42667 11.5266 7.15334V2.35334C11.5266 2.18667 11.4066 2.12 11.3533 2.1C11.3333 2.08667 11.2933 2.08 11.2533 2.08Z" fill="#6A9CFF"/>
<path d="M5.66667 3.16666H1C0.726667 3.16666 0.5 2.94 0.5 2.66666C0.5 2.39333 0.726667 2.16666 1 2.16666H5.66667C5.94 2.16666 6.16667 2.39333 6.16667 2.66666C6.16667 2.94 5.94 3.16666 5.66667 3.16666Z" fill="#6A9CFF"/>
<path d="M5 13.8333H1C0.726667 13.8333 0.5 13.6067 0.5 13.3333C0.5 13.06 0.726667 12.8333 1 12.8333H5C5.27333 12.8333 5.5 13.06 5.5 13.3333C5.5 13.6067 5.27333 13.8333 5 13.8333Z" fill="#6A9CFF"/>
<path d="M3 8.5H1C0.726667 8.5 0.5 8.27333 0.5 8C0.5 7.72667 0.726667 7.5 1 7.5H3C3.27333 7.5 3.5 7.72667 3.5 8C3.5 8.27333 3.27333 8.5 3 8.5Z" fill="#6A9CFF"/>
</svg>
