<svg width="16" height="16" viewBox="0 0 16 16" fill="none" xmlns="http://www.w3.org/2000/svg">
<path d="M11.1 13.8333C11.0933 13.8333 11.08 13.8333 11.0733 13.8333C10.8 13.8333 10.5733 13.6067 10.58 13.3267C10.58 13.0533 10.8067 12.8333 11.08 12.8333C11.0867 12.8333 11.1 12.8333 11.1067 12.8333C11.8667 12.8333 12.5933 12.5533 13.1533 12.0333C14.1867 11.1267 14.26 9.83334 13.98 8.92C13.7 8.00667 12.9267 6.97334 11.5733 6.8C11.3533 6.77334 11.18 6.60667 11.14 6.38667C10.8733 4.79334 10.0133 3.69334 8.72 3.29334C7.37333 2.88 5.82 3.28667 4.84666 4.30667C3.9 5.3 3.68 6.68 4.22667 8.20667C4.32 8.46667 4.18666 8.75334 3.92666 8.84667C3.66666 8.94 3.38 8.80667 3.28666 8.54667C2.61333 6.67334 2.92 4.88 4.12666 3.62C5.36 2.33334 7.32 1.82 9.02 2.34667C10.5733 2.82667 11.6733 4.10667 12.0667 5.88C13.4267 6.18667 14.5133 7.21334 14.9467 8.63334C15.42 10.18 14.9867 11.7667 13.8333 12.78C13.0733 13.46 12.1067 13.8333 11.1 13.8333Z" fill="#6A9CFF"/>
<path d="M3.71333 13.8333C3.7 13.8333 3.68667 13.8333 3.68 13.8333C1.76 13.7 0.886665 12.1933 0.886665 10.8533C0.886665 9.51333 1.76 8.01333 3.68 7.87333C4.17333 7.86667 4.66 7.98 5.08667 8.19333C5.33333 8.32 5.42667 8.62 5.30667 8.86667C5.18 9.11333 4.88 9.20667 4.63333 9.08667C4.35333 8.94 4.03333 8.88 3.72667 8.87333C2.46667 8.96667 1.89333 9.93333 1.89333 10.8533C1.89333 11.7733 2.46667 12.74 3.76 12.8333C4.03333 12.8533 4.24 13.0933 4.22 13.3667C4.19333 13.6333 3.97333 13.8333 3.71333 13.8333Z" fill="#6A9CFF"/>
<path d="M10.5467 7.09333C10.3667 7.09333 10.1867 6.99333 10.1 6.81333C9.97334 6.56666 10.0733 6.26666 10.3267 6.14C10.7333 5.93333 11.1933 5.82 11.6467 5.81333C11.9 5.82666 12.1533 6.02666 12.1533 6.30666C12.16 6.58 11.94 6.81333 11.66 6.81333C11.3533 6.82 11.0467 6.89333 10.7667 7.03333C10.7 7.08 10.62 7.09333 10.5467 7.09333Z" fill="#6A9CFF"/>
<path d="M5.31334 15.1667C5.18667 15.1667 5.06 15.12 4.96 15.02C4.76667 14.8267 4.76667 14.5067 4.96 14.3133L6.29334 12.98C6.48667 12.7867 6.80667 12.7867 7 12.98C7.19334 13.1733 7.19334 13.4933 7 13.6867L5.66667 15.02C5.57334 15.12 5.44667 15.1667 5.31334 15.1667Z" fill="#6A9CFF"/>
<path d="M7.98 15.1667C7.85333 15.1667 7.72667 15.12 7.62667 15.02C7.43333 14.8267 7.43333 14.5067 7.62667 14.3133L8.96 12.98C9.15333 12.7867 9.47333 12.7867 9.66667 12.98C9.86 13.1733 9.86 13.4933 9.66667 13.6867L8.33333 15.02C8.24 15.12 8.11333 15.1667 7.98 15.1667Z" fill="#6A9CFF"/>
<path d="M7.98 12.5C7.85333 12.5 7.72667 12.4533 7.62667 12.3533C7.43333 12.16 7.43333 11.84 7.62667 11.6467L8.96 10.3133C9.15333 10.12 9.47333 10.12 9.66667 10.3133C9.86 10.5067 9.86 10.8267 9.66667 11.02L8.33333 12.3533C8.24 12.4533 8.11333 12.5 7.98 12.5Z" fill="#6A9CFF"/>
<path d="M5.31334 12.5C5.18667 12.5 5.06 12.4533 4.96 12.3533C4.76667 12.16 4.76667 11.84 4.96 11.6467L6.29334 10.3133C6.48667 10.12 6.80667 10.12 7 10.3133C7.19334 10.5067 7.19334 10.8267 7 11.02L5.66667 12.3533C5.57334 12.4533 5.44667 12.5 5.31334 12.5Z" fill="#6A9CFF"/>
</svg>
