<svg width="16" height="16" viewBox="0 0 16 16" fill="none" xmlns="http://www.w3.org/2000/svg">
<path d="M11.1 13.8333C11.0933 13.8333 11.08 13.8333 11.0733 13.8333C10.8 13.8333 10.5733 13.6067 10.58 13.3267C10.58 13.0533 10.8267 12.8067 11.0867 12.8333C11.82 12.8333 12.5933 12.5533 13.16 12.0333C14.1933 11.1267 14.2667 9.83334 13.9867 8.92C13.7067 8.00667 12.9267 6.97334 11.58 6.8C11.36 6.77334 11.1867 6.60667 11.1467 6.38667C10.8867 4.79334 10.02 3.69334 8.72667 3.29334C7.38001 2.88 5.82667 3.28667 4.85334 4.30667C3.90667 5.3 3.68667 6.68 4.23334 8.20667C4.32667 8.46667 4.19334 8.75334 3.93334 8.84667C3.67334 8.94 3.38667 8.80667 3.29334 8.54667C2.62001 6.67334 2.92667 4.88 4.13334 3.62C5.36667 2.33334 7.32667 1.82 9.02667 2.34667C10.58 2.82667 11.68 4.10667 12.0733 5.88C13.4333 6.18667 14.52 7.21334 14.9533 8.63334C15.4267 10.18 15 11.7667 13.84 12.78C13.0733 13.46 12.1067 13.8333 11.1 13.8333Z" fill="#6A9CFF"/>
<path d="M3.71332 13.8333C3.69999 13.8333 3.68666 13.8333 3.67999 13.8333C1.75999 13.7 0.886658 12.1933 0.886658 10.8533C0.886658 9.51334 1.75999 8.01334 3.67999 7.87334C4.18666 7.88 4.65999 7.98 5.08666 8.19334C5.33332 8.32 5.42666 8.62 5.30666 8.86667C5.17999 9.11334 4.87999 9.20667 4.63332 9.08667C4.35332 8.94 4.03999 8.87334 3.72666 8.87334C2.46666 8.96667 1.89332 9.93334 1.89332 10.8533C1.89332 11.7733 2.46666 12.74 3.75332 12.8333C4.02666 12.8533 4.23332 13.0933 4.21999 13.3667C4.19332 13.6333 3.97332 13.8333 3.71332 13.8333Z" fill="#6A9CFF"/>
<path d="M10.5467 7.09333C10.36 7.09333 10.1867 6.99333 10.1 6.81333C9.97334 6.56666 10.0733 6.26666 10.3267 6.14C10.7333 5.93333 11.1933 5.82 11.6467 5.81333H11.6533C11.9267 5.81333 12.1467 6.03333 12.1533 6.30666C12.16 6.58 11.94 6.81333 11.66 6.81333C11.3533 6.82 11.0467 6.89333 10.7667 7.03333C10.6933 7.08 10.62 7.09333 10.5467 7.09333Z" fill="#6A9CFF"/>
<path d="M8.65333 12.6667C8.28 12.6667 7.98666 12.3667 7.98666 12C7.98666 11.6333 8.28666 11.3333 8.65333 11.3333C9.02 11.3333 9.32 11.6333 9.32 12C9.32 12.3667 9.02 12.6667 8.65333 12.6667Z" fill="#6A9CFF"/>
<path d="M5.98667 12.6667C5.61334 12.6667 5.32001 12.3667 5.32001 12C5.32001 11.6333 5.62001 11.3333 5.98667 11.3333C6.35334 11.3333 6.65334 11.6333 6.65334 12C6.65334 12.3667 6.35334 12.6667 5.98667 12.6667Z" fill="#6A9CFF"/>
<path d="M7.31999 14.6667C6.94665 14.6667 6.65332 14.3667 6.65332 14C6.65332 13.6333 6.95332 13.3333 7.31999 13.3333C7.68665 13.3333 7.98665 13.6333 7.98665 14C7.98665 14.3667 7.68665 14.6667 7.31999 14.6667Z" fill="#6A9CFF"/>
</svg>
