<svg width="16" height="16" viewBox="0 0 16 16" fill="none" xmlns="http://www.w3.org/2000/svg">
<path d="M12.3333 8.5C12.06 8.5 11.8333 8.27333 11.8333 8C11.8333 5.88666 10.1133 4.16666 8.00001 4.16666C5.88667 4.16666 4.16667 5.88666 4.16667 8C4.16667 8.27333 3.94001 8.5 3.66667 8.5C3.39334 8.5 3.16667 8.27333 3.16667 8C3.16667 5.33333 5.33334 3.16666 8.00001 3.16666C10.6667 3.16666 12.8333 5.33333 12.8333 8C12.8333 8.27333 12.6067 8.5 12.3333 8.5Z" fill="#6A9CFF"/>
<path d="M14.6667 8.66666H14.6133C14.2467 8.66666 13.9467 8.36666 13.9467 8C13.9467 7.63333 14.2467 7.33333 14.6133 7.33333C14.98 7.33333 15.3067 7.63333 15.3067 8C15.3067 8.36666 15.0333 8.66666 14.6667 8.66666ZM1.38668 8.66666H1.33334C0.966672 8.66666 0.666672 8.36666 0.666672 8C0.666672 7.63333 0.966672 7.33333 1.33334 7.33333C1.70001 7.33333 2.02666 7.63333 2.02666 8C2.02666 8.36666 1.75335 8.66666 1.38668 8.66666ZM12.6733 3.99332C12.5 3.99332 12.3333 3.92667 12.2 3.80001C11.94 3.54001 11.94 3.12 12.2 2.86L12.2867 2.77333C12.5467 2.51333 12.9667 2.51333 13.2267 2.77333C13.4867 3.03333 13.4867 3.45334 13.2267 3.71334L13.14 3.80001C13.0134 3.92667 12.8467 3.99332 12.6733 3.99332ZM3.32667 3.99332C3.15333 3.99332 2.98669 3.92667 2.85336 3.80001L2.76669 3.71334C2.50669 3.45334 2.50669 3.03333 2.76669 2.77333C3.02669 2.51333 3.44667 2.51333 3.70667 2.77333L3.79334 2.86C4.05334 3.12 4.05334 3.54001 3.79334 3.80001C3.66667 3.92667 3.49333 3.99332 3.32667 3.99332ZM8.00001 2.02667C7.63334 2.02667 7.33334 1.75332 7.33334 1.38666V1.33333C7.33334 0.966664 7.63334 0.666664 8.00001 0.666664C8.36667 0.666664 8.66667 0.966664 8.66667 1.33333C8.66667 1.7 8.36667 2.02667 8.00001 2.02667Z" fill="#6A9CFF"/>
<path d="M13.3333 10.5H2.66667C2.39334 10.5 2.16667 10.2733 2.16667 10C2.16667 9.72667 2.39334 9.5 2.66667 9.5H13.3333C13.6067 9.5 13.8333 9.72667 13.8333 10C13.8333 10.2733 13.6067 10.5 13.3333 10.5Z" fill="#6A9CFF"/>
<path d="M12 12.5H4C3.72667 12.5 3.5 12.2733 3.5 12C3.5 11.7267 3.72667 11.5 4 11.5H12C12.2733 11.5 12.5 11.7267 12.5 12C12.5 12.2733 12.2733 12.5 12 12.5Z" fill="#6A9CFF"/>
<path d="M10 14.5H6C5.72667 14.5 5.5 14.2733 5.5 14C5.5 13.7267 5.72667 13.5 6 13.5H10C10.2733 13.5 10.5 13.7267 10.5 14C10.5 14.2733 10.2733 14.5 10 14.5Z" fill="#6A9CFF"/>
</svg>
