<svg width="32" height="32" viewBox="0 0 32 32" fill="none" xmlns="http://www.w3.org/2000/svg">
<path d="M16 25.6667C10.6667 25.6667 6.33334 21.3333 6.33334 16C6.33334 10.6667 10.6667 6.33334 16 6.33334C21.3333 6.33334 25.6667 10.6667 25.6667 16C25.6667 21.3333 21.3333 25.6667 16 25.6667ZM16 8.33334C11.7733 8.33334 8.33334 11.7733 8.33334 16C8.33334 20.2267 11.7733 23.6667 16 23.6667C20.2267 23.6667 23.6667 20.2267 23.6667 16C23.6667 11.7733 20.2267 8.33334 16 8.33334Z" fill="#6A9CFF"/>
<path d="M16 30.6133C15.2667 30.6133 14.6667 30.0667 14.6667 29.3333V29.2267C14.6667 28.4933 15.2667 27.8933 16 27.8933C16.7333 27.8933 17.3333 28.4933 17.3333 29.2267C17.3333 29.96 16.7333 30.6133 16 30.6133ZM25.52 26.8533C25.1733 26.8533 24.84 26.72 24.5733 26.4667L24.4 26.2933C23.88 25.7733 23.88 24.9333 24.4 24.4133C24.92 23.8933 25.76 23.8933 26.28 24.4133L26.4533 24.5867C26.9733 25.1067 26.9733 25.9467 26.4533 26.4667C26.2 26.72 25.8667 26.8533 25.52 26.8533ZM6.48001 26.8533C6.13334 26.8533 5.80001 26.72 5.53334 26.4667C5.01334 25.9467 5.01334 25.1067 5.53334 24.5867L5.70668 24.4133C6.22668 23.8933 7.06668 23.8933 7.58668 24.4133C8.10668 24.9333 8.10668 25.7733 7.58668 26.2933L7.41334 26.4667C7.16001 26.72 6.81334 26.8533 6.48001 26.8533ZM29.3333 17.3333H29.2267C28.4933 17.3333 27.8933 16.7333 27.8933 16C27.8933 15.2667 28.4933 14.6667 29.2267 14.6667C29.96 14.6667 30.6133 15.2667 30.6133 16C30.6133 16.7333 30.0667 17.3333 29.3333 17.3333ZM2.77334 17.3333H2.66668C1.93334 17.3333 1.33334 16.7333 1.33334 16C1.33334 15.2667 1.93334 14.6667 2.66668 14.6667C3.40001 14.6667 4.05334 15.2667 4.05334 16C4.05334 16.7333 3.50668 17.3333 2.77334 17.3333ZM25.3467 7.98667C25 7.98667 24.6667 7.85334 24.4 7.6C23.88 7.08 23.88 6.24 24.4 5.72L24.5733 5.54667C25.0933 5.02667 25.9333 5.02667 26.4533 5.54667C26.9733 6.06667 26.9733 6.90667 26.4533 7.42667L26.28 7.6C26.0267 7.85334 25.6933 7.98667 25.3467 7.98667ZM6.65334 7.98667C6.30668 7.98667 5.97334 7.85334 5.70668 7.6L5.53334 7.41334C5.01334 6.89334 5.01334 6.05334 5.53334 5.53334C6.05334 5.01334 6.89334 5.01334 7.41334 5.53334L7.58668 5.70667C8.10668 6.22667 8.10668 7.06667 7.58668 7.58667C7.33334 7.85334 6.98668 7.98667 6.65334 7.98667ZM16 4.05334C15.2667 4.05334 14.6667 3.50667 14.6667 2.77334V2.66667C14.6667 1.93334 15.2667 1.33334 16 1.33334C16.7333 1.33334 17.3333 1.93334 17.3333 2.66667C17.3333 3.4 16.7333 4.05334 16 4.05334Z" fill="#6A9CFF"/>
</svg>
