<svg width="32" height="32" viewBox="0 0 32 32" fill="none" xmlns="http://www.w3.org/2000/svg">
<path d="M29.3332 18.4667C29.1599 18.4667 28.9865 18.4267 28.8265 18.32L25.4932 16.32C23.7599 15.28 21.5999 15.28 19.8532 16.32C17.4799 17.7467 14.5332 17.7467 12.1599 16.32C10.4265 15.28 8.26654 15.28 6.51988 16.32L3.18655 18.32C2.70654 18.6 2.09317 18.4534 1.81317 17.9734C1.53317 17.4934 1.67985 16.88 2.15985 16.6L5.49319 14.6C7.86652 13.1734 10.8132 13.1734 13.1865 14.6C14.9199 15.64 17.0799 15.64 18.8265 14.6C21.1999 13.1734 24.1465 13.1734 26.5199 14.6L29.8532 16.6C30.3332 16.88 30.4799 17.4934 30.1999 17.9734C29.9999 18.2934 29.6665 18.4667 29.3332 18.4667Z" fill="#6A9CFF"/>
<path d="M9.33348 9.13337C8.00015 9.13337 6.6668 8.77337 5.48013 8.06671L2.1468 6.06671C1.6668 5.78671 1.52016 5.17337 1.80016 4.69337C2.08016 4.22671 2.69349 4.06671 3.17349 4.34671L6.50682 6.34671C8.24016 7.38671 10.4001 7.38671 12.1468 6.34671C14.5201 4.92004 17.4668 4.92004 19.8402 6.34671C21.5735 7.38671 23.7335 7.38671 25.4801 6.34671L28.8135 4.34671C29.2935 4.06671 29.9068 4.21337 30.1868 4.69337C30.4668 5.16004 30.3202 5.78671 29.8402 6.06671L26.5068 8.06671C24.1335 9.49337 21.1868 9.49337 18.8135 8.06671C17.0801 7.02671 14.9202 7.02671 13.1735 8.06671C12.0002 8.77337 10.6668 9.13337 9.33348 9.13337Z" fill="#6A9CFF"/>
<path d="M29.3332 27.8C29.1599 27.8 28.9865 27.76 28.8265 27.6534L25.4932 25.6534C23.7599 24.6134 21.5999 24.6134 19.8532 25.6534C17.4799 27.08 14.5332 27.08 12.1599 25.6534C10.4265 24.6134 8.26654 24.6134 6.51988 25.6534L3.18655 27.6534C2.70654 27.9334 2.09317 27.7867 1.81317 27.3067C1.53317 26.8267 1.67985 26.2134 2.15985 25.9334L5.49319 23.9334C7.86652 22.5067 10.8132 22.5067 13.1865 23.9334C14.9199 24.9734 17.0799 24.9734 18.8265 23.9334C21.1999 22.5067 24.1465 22.5067 26.5199 23.9334L29.8532 25.9334C30.3332 26.2134 30.4799 26.8267 30.1999 27.3067C29.9999 27.6267 29.6665 27.8 29.3332 27.8Z" fill="#6A9CFF"/>
</svg>
